<?xml version="1.0" encoding="UTF-8" standalone="no"?>
<!-- Created with Sodipodi ("http://www.sodipodi.com/") -->
<svg
   xmlns:dc="http://purl.org/dc/elements/1.1/"
   xmlns:cc="http://web.resource.org/cc/"
   xmlns:rdf="http://www.w3.org/1999/02/22-rdf-syntax-ns#"
   xmlns:svg="http://www.w3.org/2000/svg"
   xmlns="http://www.w3.org/2000/svg"
   xmlns:sodipodi="http://inkscape.sourceforge.net/DTD/sodipodi-0.dtd"
   xmlns:inkscape="http://www.inkscape.org/namespaces/inkscape"
   id="svg1"
   sodipodi:version="0.32"
   inkscape:version="0.42.2"
   width="170.00000pt"
   height="226.00000pt"
   sodipodi:docname="splash-p.svg"
   sodipodi:docbase="/home/reno/Desktop/artwork"
   inkscape:export-filename="/tmp/splash-p3.png"
   inkscape:export-xdpi="101.64706"
   inkscape:export-ydpi="101.64706">
  <metadata
     id="metadata1148">
    <rdf:RDF>
      <cc:Work
         rdf:about="">
        <dc:format>image/svg+xml</dc:format>
        <dc:type
           rdf:resource="http://purl.org/dc/dcmitype/StillImage" />
        <cc:license
           rdf:resource="http://creativecommons.org/licenses/GPL/2.0/" />
      </cc:Work>
      <cc:License
         rdf:about="http://creativecommons.org/licenses/GPL/2.0/">
        <cc:permits
           rdf:resource="http://web.resource.org/cc/Reproduction" />
        <cc:permits
           rdf:resource="http://web.resource.org/cc/Distribution" />
        <cc:requires
           rdf:resource="http://web.resource.org/cc/Notice" />
        <cc:permits
           rdf:resource="http://web.resource.org/cc/DerivativeWorks" />
        <cc:requires
           rdf:resource="http://web.resource.org/cc/ShareAlike" />
        <cc:requires
           rdf:resource="http://web.resource.org/cc/SourceCode" />
      </cc:License>
    </rdf:RDF>
  </metadata>
  <defs
     id="defs3" />
  <sodipodi:namedview
     id="base"
     pagecolor="#ffffff"
     bordercolor="#666666"
     borderopacity="1.0"
     inkscape:pageopacity="0.0"
     inkscape:pageshadow="2"
     inkscape:zoom="2.0000000"
     inkscape:cx="212.63294"
     inkscape:cy="97.288728"
     inkscape:window-width="1598"
     inkscape:window-height="1151"
     showguides="true"
     snaptoguides="true"
     inkscape:window-x="31"
     inkscape:window-y="25"
     inkscape:current-layer="svg1"
     showborder="true"
     inkscape:showpageshadow="false" />
  <g
     id="g625"
     transform="matrix(0.531198,0.000000,0.000000,0.531198,43.68093,-234.5879)">
    <path
       style="font-size:12.000000px;fill:#3673b9;fill-rule:evenodd;stroke:#000000;stroke-width:5.0000000;stroke-linecap:round;stroke-linejoin:round"
       d="M 94.024300,653.14398 C 92.633333,643.62793 93.329627,632.33474 101.38695,625.80430 C 115.28127,614.04372 133.95126,610.38297 151.62752,608.90935 C 169.07000,607.85482 187.03415,608.15809 203.78989,613.63617 C 213.29413,616.88357 223.20214,623.21724 225.99866,633.44354 C 227.38221,641.11544 224.61930,650.05144 217.54265,654.06450 C 208.24050,660.47782 196.70642,661.67027 185.72987,662.11818 C 177.54027,663.42460 168.61746,663.50570 161.46564,668.19505 C 157.10070,670.70002 154.42585,677.16581 158.33647,681.23937 C 162.72106,685.79385 170.08939,684.89025 174.52801,689.50666 C 181.13028,695.29924 181.15729,706.98578 173.99707,712.37846 C 166.96702,718.83389 157.01179,719.60237 147.94754,719.08499 C 138.45778,719.09454 128.43120,718.83214 120.13472,713.58693 C 109.08705,707.25984 104.67944,694.57656 100.75187,683.21512 C 97.527780,673.43994 95.506670,663.31596 94.024300,653.14398 z "
       id="path616" />
    <path
       style="font-size:12.000000px;fill:#3673b9;fill-rule:evenodd;stroke:#000000;stroke-width:5.0000000;stroke-linecap:round;stroke-linejoin:round"
       d="M 194.06200,704.69000 C 193.28369,698.01902 194.72753,689.50807 201.76469,686.72202 C 211.79086,682.33149 222.92306,684.64532 233.48892,683.92884 C 241.00769,683.79950 249.27692,683.65173 255.30970,688.92553 C 261.86100,693.69198 265.04306,704.30078 259.06958,710.72873 C 253.20476,715.14426 245.34543,715.25109 238.30890,715.94050 C 227.11774,716.34285 215.80274,718.24492 204.66635,716.32760 C 198.69461,715.52381 194.29698,710.72353 194.06200,704.69000 z "
       id="path617" />
    <path
       style="font-size:12.000000px;fill:#3673b9;fill-rule:evenodd;stroke:#000000;stroke-width:5.0000000;stroke-linecap:round;stroke-linejoin:round"
       d="M 223.57201,534.43701 C 231.03457,534.49346 234.55240,542.54008 235.40837,548.88015 C 237.40999,561.19569 234.25888,573.51740 233.22933,585.76978 C 232.80110,592.43907 230.19613,600.95591 222.72709,602.48265 C 217.06546,603.06694 210.79357,600.69166 207.23863,596.16113 C 203.27277,590.14158 205.47458,582.57401 205.31855,575.86386 C 206.29860,564.61579 206.47700,552.87244 211.24511,542.42636 C 213.44205,537.66906 218.09146,533.86753 223.57201,534.43701 z "
       id="path618" />
    <path
       style="font-size:12.000000px;fill:#3673b9;fill-rule:evenodd;stroke:#000000;stroke-width:5.0000000;stroke-linecap:round;stroke-linejoin:round"
       d="M 190.99600,543.84399 C 191.07405,555.14326 191.11179,566.47115 190.59896,577.75670 C 190.33125,583.08006 187.27799,589.09334 181.43645,589.72875 C 175.60631,590.58430 167.85106,590.16757 164.98639,584.05198 C 161.66285,576.37583 163.15531,567.76235 162.57511,559.63827 C 162.73436,548.43031 160.63308,536.36854 166.12208,526.04641 C 169.96504,518.21359 182.40721,517.61407 186.95022,525.04627 C 190.43770,530.60177 190.66648,537.48804 190.99600,543.84399 z "
       id="path619" />
    <path
       style="font-size:12.000000px;fill:#3673b9;fill-rule:evenodd;stroke:#000000;stroke-width:5.0000000;stroke-linecap:round;stroke-linejoin:round"
       d="M 130.75800,527.27802 C 123.29546,527.22975 119.66547,535.22627 118.72096,541.55360 C 116.54699,553.83987 119.52482,566.20449 120.38345,578.47000 C 120.77818,584.90870 122.77829,593.10386 129.76794,595.22447 C 135.08879,596.29341 141.08638,594.43537 145.00923,590.70367 C 150.39812,584.40144 148.24252,575.46657 148.24083,567.91846 C 147.36010,556.40440 147.67757,544.15286 142.03006,533.71231 C 139.76613,529.68437 135.48089,526.88957 130.75800,527.27802 z "
       id="path620" />
    <path
       style="font-size:12.000000px;fill:#3673b9;fill-rule:evenodd;stroke:#000000;stroke-width:5.0000000;stroke-linecap:round;stroke-linejoin:round"
       d="M 85.985603,547.51202 C 78.734337,548.04043 75.965763,556.16691 75.620017,562.35214 C 74.717500,573.62643 77.977232,584.66384 80.506470,595.52718 C 82.536098,601.39017 84.139844,609.05264 90.590228,611.57352 C 96.002586,612.84941 100.89412,608.81513 104.86003,605.65871 C 109.49799,601.76574 109.80626,595.08980 108.06694,589.69137 C 105.32729,578.06862 103.25300,566.10271 98.208724,555.20014 C 96.015861,550.53746 91.470906,546.53838 85.985603,547.51202 z "
       id="path621" />
  </g>
  <path
     style="font-size:24.000000px;font-style:normal;font-weight:normal;fill:#000000;fill-opacity:1.0000000;stroke:none;stroke-width:1.0000000pt;stroke-linecap:butt;stroke-linejoin:miter;stroke-opacity:1.0000000;font-family:Bitstream Vera Sans"
     d="M 91.498782,195.84001 L 91.498782,189.18344 L 86.020805,189.18344 L 86.020805,186.42784 L 94.818770,186.42784 L 94.818770,197.06840 C 93.523950,197.98693 92.096358,198.68413 90.535984,199.15999 C 88.975573,199.62480 87.310047,199.85719 85.539407,199.85719 C 81.666083,199.85719 78.633829,198.72841 76.442644,196.47081 C 74.262513,194.20217 73.172456,191.04818 73.172456,187.00885 C 73.172456,182.95847 74.262513,179.80448 76.442644,177.54688 C 78.633829,175.27825 81.666083,174.14391 85.539407,174.14390 C 87.155122,174.14391 88.687839,174.34312 90.137584,174.74150 C 91.598365,175.13992 92.942949,175.72644 94.171374,176.50109 L 94.171374,180.07006 C 92.931886,179.01877 91.614959,178.22750 90.220584,177.69628 C 88.826179,177.16510 87.359849,176.89950 85.821610,176.89948 C 82.789338,176.89950 80.509622,177.74610 78.982437,179.43927 C 77.466305,181.13248 76.708234,183.65566 76.708244,187.00885 C 76.708234,190.35098 77.466305,192.86862 78.982437,194.56181 C 80.509622,196.25500 82.789338,197.10161 85.821610,197.10161 C 87.005719,197.10161 88.062577,197.00201 88.992195,196.80280 C 89.921767,196.59253 90.757296,196.27161 91.498782,195.84001 M 104.31392,177.34769 L 104.31392,186.66025 L 108.53031,186.66025 C 110.09069,186.66025 111.29695,186.25633 112.14910,185.44845 C 113.00122,184.64060 113.42728,183.48967 113.42729,181.99567 C 113.42728,180.51275 113.00122,179.36736 112.14910,178.55947 C 111.29695,177.75165 110.09069,177.34770 108.53031,177.34769 L 104.31392,177.34769 M 100.96075,174.59209 L 108.53031,174.59209 C 111.30802,174.59212 113.40515,175.22291 114.82169,176.48449 C 116.24926,177.73504 116.96306,179.57209 116.96307,181.99567 C 116.96306,184.44141 116.24926,186.28952 114.82169,187.54004 C 113.40515,188.79058 111.30802,189.41584 108.53031,189.41584 L 104.31392,189.41584 L 104.31392,199.37580 L 100.96075,199.37580 L 100.96075,174.59209 M 121.47825,174.59209 L 137.14859,174.59209 L 137.14859,177.41408 L 124.83144,177.41408 L 124.83144,184.75126 L 136.63399,184.75126 L 136.63399,187.57325 L 124.83144,187.57325 L 124.83144,196.55380 L 137.44739,196.55380 L 137.44739,199.37580 L 121.47825,199.37580 L 121.47825,174.59209 M 157.00210,196.55380 L 168.70506,196.55380 L 168.70506,199.37580 L 152.96833,199.37580 L 152.96833,196.55380 C 154.24098,195.23688 155.97291,193.47175 158.16411,191.25843 C 160.36635,189.03404 161.74967,187.60091 162.31408,186.95904 C 163.38754,185.75280 164.13453,184.73467 164.55508,183.90466 C 164.98665,183.06362 165.20246,182.23914 165.20247,181.43127 C 165.20246,180.11435 164.73766,179.04091 163.80807,178.21089 C 162.88954,177.38091 161.68881,176.96592 160.20590,176.96588 C 159.15456,176.96592 158.04235,177.14852 156.86930,177.51368 C 155.70731,177.87890 154.46231,178.43223 153.13434,179.17368 L 153.13434,175.78729 C 154.48445,175.24506 155.74603,174.83559 156.91910,174.55889 C 158.09216,174.28225 159.16562,174.14391 160.13950,174.14390 C 162.70695,174.14391 164.75426,174.78578 166.28147,176.06949 C 167.80864,177.35324 168.57224,179.06856 168.57226,181.21546 C 168.57224,182.23362 168.37858,183.20194 167.99127,184.12046 C 167.61498,185.02793 166.92332,186.10139 165.91626,187.34084 C 165.63958,187.66179 164.75979,188.59137 163.27688,190.12962 C 161.79395,191.65683 159.70236,193.79823 157.00210,196.55380 M 175.76002,195.15941 L 179.26263,195.15941 L 179.26263,199.37580 L 175.76002,199.37580 L 175.76002,195.15941 M 185.73658,174.59209 L 201.67252,174.59209 L 201.67252,176.01970 L 192.67537,199.37580 L 189.17277,199.37580 L 197.63873,177.41408 L 185.73658,177.41408 L 185.73658,174.59209"
     id="text1326" />
  <path
     style="font-size:46.729351px;font-style:normal;font-variant:normal;font-weight:bold;font-stretch:normal;text-align:start;line-height:125.00000%;writing-mode:lr-tb;text-anchor:start;fill:#000000;fill-opacity:0.50819671;stroke:none;stroke-width:1.0000000px;stroke-linecap:butt;stroke-linejoin:miter;stroke-opacity:1.0000000;font-family:Bitstream Vera Sans"
     d="M 6.2934445,302.79753 L 6.2934445,269.02543 L 12.388629,269.02543 L 12.388629,290.28333 L 18.211521,290.28333 L 18.211521,270.29311 L 24.306704,270.29311 L 24.306704,290.28333 L 37.565301,290.28333 L 37.565301,302.79753 L 6.2934445,302.79753 M 27.008693,245.39471 C 27.008704,247.82173 27.274015,249.65281 27.804628,250.88797 C 28.335260,252.10148 29.117230,252.70822 30.150540,252.70821 C 31.100083,252.70822 31.847144,252.22066 32.391725,251.24552 C 32.922353,250.24872 33.187664,248.87270 33.187660,247.11745 C 33.187664,244.92885 32.684969,243.08693 31.679573,241.59170 C 30.660225,240.09652 29.389524,239.34892 27.867465,239.34889 L 27.008693,239.34889 L 27.008693,245.39471 M 24.181030,227.61480 L 37.565301,227.61480 L 37.565301,239.34889 L 34.088323,239.34889 C 35.512629,240.90914 36.552929,242.66437 37.209225,244.61460 C 37.851558,246.56489 38.172724,248.93772 38.172724,251.73308 C 38.172724,255.50360 37.467555,258.56986 36.057214,260.93183 C 34.632913,263.27215 32.789698,264.44232 30.527562,264.44230 C 27.776711,264.44232 25.758947,262.97962 24.474269,260.05421 C 23.189617,257.10715 22.547285,252.49153 22.547269,246.20733 L 22.547269,239.34889 L 21.960791,239.34889 C 20.773889,239.34892 19.908135,240.07485 19.363530,241.52668 C 18.804999,242.97857 18.525723,245.24305 18.525705,248.32011 C 18.525723,250.81214 18.686307,253.13079 19.007454,255.27606 C 19.328640,257.42137 19.810389,259.41497 20.452705,261.25687 L 14.734542,261.25687 C 14.343579,258.76488 14.050341,256.26204 13.854825,253.74835 C 13.645392,251.23469 13.540663,248.72102 13.540639,246.20733 C 13.540663,239.64146 14.378489,234.90665 16.054118,232.00289 C 17.715826,229.07753 20.424794,227.61484 24.181030,227.61480 M 18.002064,182.98622 C 16.549853,181.51272 15.446716,179.76833 14.692650,177.75301 C 13.924666,175.71610 13.540663,173.48414 13.540639,171.05709 C 13.540663,166.87492 14.371507,163.68949 16.033173,161.50080 C 17.694879,159.31222 20.110609,158.21791 23.280368,158.21784 L 37.565301,158.21784 L 37.565301,169.91944 L 25.333041,169.91944 C 25.151525,169.89782 24.963014,169.88699 24.767508,169.88693 C 24.572029,169.86532 24.292753,169.85448 23.929683,169.85443 C 22.268010,169.85448 21.067126,170.23370 20.327030,170.99208 C 19.573004,171.75057 19.195984,172.97491 19.195966,174.66509 C 19.195984,176.87543 19.782461,178.58733 20.955400,179.80079 C 22.128372,180.99266 23.824967,181.61023 26.045193,181.65354 L 37.565301,181.65354 L 37.565301,193.35513 L 25.333041,193.35513 C 22.735796,193.35516 21.067126,193.70187 20.327030,194.39528 C 19.573004,195.08873 19.195984,196.32390 19.195966,198.10077 C 19.195984,200.33277 19.789443,202.05550 20.976345,203.26898 C 22.149318,204.48250 23.831950,205.08924 26.024248,205.08922 L 37.565301,205.08922 L 37.565301,216.79083 L 14.106172,216.79083 L 14.106172,205.08922 L 17.541258,205.08922 C 16.214722,203.65905 15.216314,202.02300 14.546031,200.18107 C 13.875794,198.31749 13.540663,196.26972 13.540639,194.03772 C 13.540663,191.52408 13.931649,189.30295 14.713597,187.37431 C 15.495590,185.44575 16.591744,183.98306 18.002064,182.98622 M 14.106172,147.29636 L 14.106172,135.65978 L 37.565301,135.65978 L 37.565301,147.29636 L 14.106172,147.29636 M 4.9738686,147.29636 L 4.9738686,135.65978 L 11.089999,135.65978 L 11.089999,147.29636 L 4.9738686,147.29636 M 4.9738686,124.41325 L 4.9738686,112.77666 L 37.565301,112.77666 L 37.565301,124.41325 L 4.9738686,124.41325 M 14.106172,101.53013 L 14.106172,89.893543 L 37.565301,89.893543 L 37.565301,101.53013 L 14.106172,101.53013 M 4.9738686,101.53013 L 4.9738686,89.893543 L 11.089999,89.893543 L 11.089999,101.53013 L 4.9738686,101.53013 M 27.008693,62.329785 C 27.008704,64.756802 27.274015,66.587883 27.804628,67.823033 C 28.335260,69.036547 29.117230,69.643296 30.150540,69.643281 C 31.100083,69.643296 31.847144,69.155731 32.391725,68.180582 C 32.922353,67.183797 33.187664,65.807777 33.187660,64.052521 C 33.187664,61.863911 32.684969,60.021995 31.679573,58.526767 C 30.660225,57.031591 29.389524,56.283990 27.867465,56.283963 L 27.008693,56.283963 L 27.008693,62.329785 M 24.181030,44.549865 L 37.565301,44.549865 L 37.565301,56.283963 L 34.088323,56.283963 C 35.512629,57.844202 36.552929,59.599439 37.209225,61.549680 C 37.851558,63.499966 38.172724,65.872786 38.172724,68.668149 C 38.172724,72.438674 37.467555,75.504922 36.057214,77.866902 C 34.632913,80.207224 32.789698,81.377382 30.527562,81.377380 C 27.776711,81.377382 25.758947,79.914685 24.474269,76.989282 C 23.189617,74.042224 22.547285,69.426601 22.547269,63.142397 L 22.547269,56.283963 L 21.960791,56.283963 C 20.773889,56.283990 19.908135,57.009922 19.363530,58.461759 C 18.804999,59.913648 18.525723,62.178120 18.525705,65.255184 C 18.525723,67.747206 18.686307,70.065853 19.007454,72.211131 C 19.328640,74.356432 19.810389,76.350036 20.452705,78.191945 L 14.734542,78.191945 C 14.343579,75.699948 14.050341,73.197110 13.854825,70.683423 C 13.645392,68.169764 13.540663,65.656091 13.540639,63.142397 C 13.540663,56.576530 14.378489,51.841723 16.054118,48.937962 C 17.715826,46.012602 20.424794,44.549904 24.181030,44.549865 M 20.494596,6.6172104 C 20.187409,7.6357140 19.963990,8.6541850 19.824336,9.6726265 C 19.670751,10.669457 19.593950,11.677094 19.593932,12.695538 C 19.593950,15.685969 20.215338,17.993781 21.458096,19.618981 C 22.686922,21.222551 24.453336,22.024325 26.757345,22.024308 L 37.565301,22.024308 L 37.565301,33.660893 L 14.106172,33.660893 L 14.106172,22.024308 L 17.960172,22.024308 C 16.424179,20.529123 15.307078,18.817225 14.608868,16.888610 C 13.896740,14.938368 13.540663,12.608886 13.540639,9.9001575 C 13.540663,9.5101340 13.554627,9.0875770 13.582531,8.6324849 C 13.596518,8.1774540 13.638410,7.5165312 13.708205,6.6497149 L 20.494596,6.6172104"
     id="text1325" />
  <path
     style="font-size:12.000000px;font-style:normal;font-weight:normal;line-height:125.00000%;fill:#000000;fill-opacity:1.0000000;stroke:none;stroke-width:1.0000000px;stroke-linecap:butt;stroke-linejoin:miter;stroke-opacity:1.0000000;font-family:Bitstream Vera Sans"
     d="M 82.594488,262.08318 L 82.594488,265.02026 L 84.334183,265.02026 C 84.917657,265.02026 85.349000,264.90034 85.628215,264.66051 C 85.911000,264.41710 86.052395,264.04661 86.052400,263.54904 C 86.052395,263.04790 85.911000,262.67920 85.628215,262.44293 C 85.349000,262.20311 84.917657,262.08319 84.334183,262.08318 L 82.594488,262.08318 M 82.594488,258.78636 L 82.594488,261.20260 L 84.199947,261.20260 C 84.729726,261.20261 85.123484,261.10417 85.381221,260.90728 C 85.642529,260.70683 85.773185,260.40256 85.773189,259.99448 C 85.773185,259.58999 85.642529,259.28751 85.381221,259.08705 C 85.123484,258.88659 84.729726,258.78636 84.199947,258.78636 L 82.594488,258.78636 M 81.509863,257.89503 L 84.280489,257.89503 C 85.107375,257.89504 85.744548,258.06686 86.192005,258.41050 C 86.639451,258.75415 86.863178,259.24276 86.863183,259.87635 C 86.863178,260.36677 86.748630,260.75694 86.519540,261.04688 C 86.290439,261.33684 85.953954,261.51762 85.510088,261.58920 C 86.043446,261.70375 86.456891,261.94359 86.750425,262.30870 C 87.047528,262.67025 87.196082,263.12307 87.196089,263.66716 C 87.196082,264.38310 86.952668,264.93615 86.465846,265.32632 C 85.979012,265.71650 85.286357,265.91159 84.387877,265.91159 L 81.509863,265.91159 L 81.509863,257.89503 M 91.335918,260.59048 C 90.806132,260.59049 90.387317,260.79811 90.079471,261.21334 C 89.771623,261.62500 89.617699,262.19057 89.617700,262.91008 C 89.617699,263.62959 89.769833,264.19696 90.074102,264.61219 C 90.381947,265.02385 90.802552,265.22967 91.335918,265.22967 C 91.862118,265.22967 92.279143,265.02205 92.586995,264.60682 C 92.894837,264.19158 93.048761,263.62600 93.048765,262.91008 C 93.048761,262.19773 92.894837,261.63395 92.586995,261.21871 C 92.279143,260.79990 91.862118,260.59049 91.335918,260.59048 M 91.335918,259.75285 C 92.195022,259.75286 92.869780,260.03208 93.360192,260.59048 C 93.850595,261.14891 94.095798,261.92210 94.095804,262.91008 C 94.095798,263.89447 93.850595,264.66768 93.360192,265.22967 C 92.869780,265.78810 92.195022,266.06730 91.335918,266.06730 C 90.473227,266.06730 89.796680,265.78810 89.306274,265.22967 C 88.819445,264.66768 88.576031,263.89447 88.576032,262.91008 C 88.576031,261.92210 88.819445,261.14891 89.306274,260.59048 C 89.796680,260.03208 90.473227,259.75286 91.335918,259.75285 M 98.058442,260.59048 C 97.528656,260.59049 97.109841,260.79811 96.801996,261.21334 C 96.494147,261.62500 96.340224,262.19057 96.340225,262.91008 C 96.340224,263.62959 96.492357,264.19696 96.796626,264.61219 C 97.104471,265.02385 97.525077,265.22967 98.058442,265.22967 C 98.584643,265.22967 99.001668,265.02205 99.309520,264.60682 C 99.617361,264.19158 99.771285,263.62600 99.771291,262.91008 C 99.771285,262.19773 99.617361,261.63395 99.309520,261.21871 C 99.001668,260.79990 98.584643,260.59049 98.058442,260.59048 M 98.058442,259.75285 C 98.917547,259.75286 99.592305,260.03208 100.08272,260.59048 C 100.57312,261.14891 100.81832,261.92210 100.81833,262.91008 C 100.81832,263.89447 100.57312,264.66768 100.08272,265.22967 C 99.592305,265.78810 98.917547,266.06730 98.058442,266.06730 C 97.195752,266.06730 96.519204,265.78810 96.028798,265.22967 C 95.541969,264.66768 95.298555,263.89447 95.298556,262.91008 C 95.298555,261.92210 95.541969,261.14891 96.028798,260.59048 C 96.519204,260.03208 97.195752,259.75286 98.058442,259.75285 M 103.42787,258.19036 L 103.42787,259.89783 L 105.46288,259.89783 L 105.46288,260.66565 L 103.42787,260.66565 L 103.42787,263.93027 C 103.42787,264.42068 103.49409,264.73569 103.62654,264.87529 C 103.76256,265.01489 104.03640,265.08470 104.44806,265.08470 L 105.46288,265.08470 L 105.46288,265.91159 L 104.44806,265.91159 C 103.68560,265.91159 103.15940,265.77019 102.86945,265.48741 C 102.57950,265.20103 102.43453,264.68199 102.43453,263.93027 L 102.43453,260.66565 L 101.70965,260.66565 L 101.70965,259.89783 L 102.43453,259.89783 L 102.43453,258.19036 L 103.42787,258.19036 M 106.76766,259.89783 L 107.75563,259.89783 L 107.75563,265.91159 L 106.76766,265.91159 L 106.76766,259.89783 M 106.76766,257.55675 L 107.75563,257.55675 L 107.75563,258.80784 L 106.76766,258.80784 L 106.76766,257.55675 M 114.81643,262.28186 L 114.81643,265.91159 L 113.82845,265.91159 L 113.82845,262.31408 C 113.82845,261.74492 113.71748,261.31894 113.49555,261.03615 C 113.27361,260.75336 112.94070,260.61197 112.49684,260.61196 C 111.96347,260.61197 111.54286,260.78200 111.23502,261.12206 C 110.92717,261.46213 110.77325,261.92569 110.77325,262.51274 L 110.77325,265.91159 L 109.77990,265.91159 L 109.77990,259.89783 L 110.77325,259.89783 L 110.77325,260.83211 C 111.00950,260.47058 111.28692,260.20031 111.60551,260.02132 C 111.92767,259.84235 112.29816,259.75286 112.71698,259.75285 C 113.40784,259.75286 113.93047,259.96764 114.28485,260.39718 C 114.63923,260.82317 114.81643,261.45138 114.81643,262.28186 M 120.75502,262.83491 C 120.75502,262.11899 120.60646,261.56414 120.30936,261.17039 C 120.01582,260.77663 119.60237,260.57975 119.06902,260.57975 C 118.53924,260.57975 118.12579,260.77663 117.82868,261.17039 C 117.53515,261.56414 117.38839,262.11899 117.38839,262.83491 C 117.38839,263.54726 117.53515,264.10031 117.82868,264.49406 C 118.12579,264.88782 118.53924,265.08470 119.06902,265.08470 C 119.60237,265.08470 120.01582,264.88782 120.30936,264.49406 C 120.60646,264.10031 120.75502,263.54726 120.75502,262.83491 M 121.74299,265.16524 C 121.74298,266.18901 121.51568,266.94968 121.06107,267.44724 C 120.60646,267.94839 119.91022,268.19897 118.97237,268.19897 C 118.62514,268.19897 118.29761,268.17211 117.98976,268.11843 C 117.68191,268.06831 117.38301,267.98956 117.09306,267.88217 L 117.09306,266.92104 C 117.38301,267.07855 117.66938,267.19488 117.95217,267.27005 C 118.23496,267.34523 118.52313,267.38281 118.81666,267.38281 C 119.46457,267.38281 119.94960,267.21278 120.27177,266.87271 C 120.59393,266.53623 120.75502,266.02614 120.75502,265.34243 L 120.75502,264.85382 C 120.55097,265.20819 120.28966,265.47309 119.97108,265.64848 C 119.65249,265.82389 119.27126,265.91159 118.82739,265.91159 C 118.08999,265.91159 117.49577,265.63059 117.04474,265.06859 C 116.59371,264.50659 116.36819,263.76203 116.36819,262.83491 C 116.36819,261.90421 116.59371,261.15786 117.04474,260.59586 C 117.49577,260.03386 118.08999,259.75286 118.82739,259.75285 C 119.27126,259.75286 119.65249,259.84056 119.97108,260.01595 C 120.28966,260.19136 120.55097,260.45626 120.75502,260.81063 L 120.75502,259.89783 L 121.74299,259.89783 L 121.74299,265.16524 M 123.91761,264.54776 L 125.05056,264.54776 L 125.05056,265.91159 L 123.91761,265.91159 L 123.91761,264.54776 M 131.90732,258.78636 L 131.90732,261.79861 L 133.27116,261.79861 C 133.77588,261.79861 134.16606,261.66795 134.44169,261.40664 C 134.71732,261.14533 134.85513,260.77305 134.85514,260.28980 C 134.85513,259.81013 134.71732,259.43964 134.44169,259.17832 C 134.16606,258.91702 133.77588,258.78636 133.27116,258.78636 L 131.90732,258.78636 M 130.82270,257.89503 L 133.27116,257.89503 C 134.16963,257.89504 134.84797,258.09907 135.30616,258.50715 C 135.76793,258.91165 135.99882,259.50587 135.99883,260.28980 C 135.99882,261.08090 135.76793,261.67869 135.30616,262.08318 C 134.84797,262.48769 134.16963,262.68994 133.27116,262.68993 L 131.90732,262.68993 L 131.90732,265.91159 L 130.82270,265.91159 L 130.82270,257.89503 M 137.41636,257.55675 L 138.40433,257.55675 L 138.40433,265.91159 L 137.41636,265.91159 L 137.41636,257.55675 M 145.61010,262.65772 L 145.61010,263.14097 L 141.06756,263.14097 C 141.11052,263.82109 141.31456,264.34013 141.67968,264.69809 C 142.04838,265.05248 142.56026,265.22967 143.21534,265.22967 C 143.59477,265.22967 143.96168,265.18314 144.31607,265.09007 C 144.67403,264.99700 145.02840,264.85739 145.37922,264.67125 L 145.37922,265.60553 C 145.02483,265.75588 144.66150,265.87043 144.28922,265.94918 C 143.91693,266.02792 143.53929,266.06730 143.15628,266.06730 C 142.19694,266.06730 141.43627,265.78810 140.87427,265.22967 C 140.31585,264.67125 140.03663,263.91595 140.03663,262.96378 C 140.03663,261.97938 140.30153,261.19902 140.83131,260.62270 C 141.36467,260.04281 142.08238,259.75286 142.98446,259.75285 C 143.79344,259.75286 144.43240,260.01417 144.90134,260.53679 C 145.37384,261.05584 145.61010,261.76282 145.61010,262.65772 M 144.62212,262.36776 C 144.61496,261.82725 144.46283,261.39591 144.16572,261.07374 C 143.87219,260.75157 143.48202,260.59049 142.99519,260.59048 C 142.44393,260.59049 142.00185,260.74620 141.66895,261.05763 C 141.33962,261.36905 141.14990,261.80756 141.09978,262.37314 L 144.62212,262.36776 M 149.96471,262.88860 C 149.16645,262.88860 148.61340,262.97989 148.30555,263.16244 C 147.99770,263.34501 147.84378,263.65643 147.84378,264.09672 C 147.84378,264.44752 147.95833,264.72674 148.18743,264.93435 C 148.42010,265.13840 148.73511,265.24041 149.13245,265.24041 C 149.68013,265.24041 150.11863,265.04711 150.44796,264.66051 C 150.78086,264.27034 150.94731,263.75308 150.94732,263.10875 L 150.94732,262.88860 L 149.96471,262.88860 M 151.93528,262.48052 L 151.93528,265.91159 L 150.94732,265.91159 L 150.94732,264.99878 C 150.72179,265.36390 150.44079,265.63417 150.10432,265.80957 C 149.76782,265.98140 149.35617,266.06730 148.86935,266.06730 C 148.25365,266.06730 147.76324,265.89548 147.39812,265.55184 C 147.03658,265.20462 146.85581,264.74106 146.85581,264.16115 C 146.85581,263.48461 147.08132,262.97451 147.53236,262.63087 C 147.98697,262.28722 148.66351,262.11541 149.56200,262.11540 L 150.94732,262.11540 L 150.94732,262.01875 C 150.94731,261.56414 150.79696,261.21334 150.49628,260.96635 C 150.19916,260.71578 149.78036,260.59049 149.23983,260.59048 C 148.89619,260.59049 148.56150,260.63165 148.23576,260.71398 C 147.91000,260.79632 147.59679,260.91982 147.29610,261.08447 L 147.29610,260.17167 C 147.65764,260.03208 148.00845,259.92826 148.34852,259.86024 C 148.68857,259.78865 149.01968,259.75286 149.34186,259.75285 C 150.21170,259.75286 150.86140,259.97838 151.29096,260.42940 C 151.72051,260.88044 151.93528,261.56414 151.93528,262.48052 M 157.80944,260.07502 L 157.80944,261.00930 C 157.53023,260.86612 157.24028,260.75873 156.93960,260.68713 C 156.63890,260.61554 156.32748,260.57975 156.00532,260.57975 C 155.51491,260.57975 155.14620,260.65492 154.89922,260.80527 C 154.65580,260.95561 154.53409,261.18113 154.53410,261.48181 C 154.53409,261.71091 154.62180,261.89168 154.79719,262.02412 C 154.97260,262.15299 155.32518,262.27649 155.85497,262.39462 L 156.19324,262.46979 C 156.89485,262.62013 157.39242,262.83312 157.68595,263.10875 C 157.98305,263.38080 158.13160,263.76203 158.13161,264.25243 C 158.13160,264.81085 157.90967,265.25294 157.46580,265.57869 C 157.02551,265.90443 156.41876,266.06730 155.64557,266.06730 C 155.32340,266.06730 154.98692,266.03508 154.63611,265.97065 C 154.28888,265.90980 153.92197,265.81673 153.53538,265.69144 L 153.53538,264.67125 C 153.90050,264.86097 154.26025,265.00416 154.61464,265.10081 C 154.96901,265.19387 155.31981,265.24041 155.66704,265.24041 C 156.13239,265.24041 156.49035,265.16165 156.74093,265.00415 C 156.99149,264.84307 157.11678,264.61755 157.11679,264.32761 C 157.11678,264.05914 157.02551,263.85331 156.84294,263.71013 C 156.66396,263.56694 156.26841,263.42913 155.65630,263.29668 L 155.31266,263.21614 C 154.70054,263.08727 154.25846,262.89040 153.98641,262.62550 C 153.71436,262.35703 153.57833,261.99012 153.57833,261.52476 C 153.57833,260.95919 153.77880,260.52248 154.17971,260.21463 C 154.58062,259.90678 155.14979,259.75286 155.88718,259.75285 C 156.25230,259.75286 156.59595,259.77970 156.91811,259.83340 C 157.24028,259.88710 157.53739,259.96764 157.80944,260.07502 M 164.85413,262.65772 L 164.85413,263.14097 L 160.31160,263.14097 C 160.35455,263.82109 160.55859,264.34013 160.92371,264.69809 C 161.29241,265.05248 161.80429,265.22967 162.45937,265.22967 C 162.83880,265.22967 163.20571,265.18314 163.56010,265.09007 C 163.91806,264.99700 164.27244,264.85739 164.62325,264.67125 L 164.62325,265.60553 C 164.26886,265.75588 163.90553,265.87043 163.53326,265.94918 C 163.16097,266.02792 162.78332,266.06730 162.40031,266.06730 C 161.44097,266.06730 160.68030,265.78810 160.11830,265.22967 C 159.55988,264.67125 159.28067,263.91595 159.28067,262.96378 C 159.28067,261.97938 159.54556,261.19902 160.07535,260.62270 C 160.60870,260.04281 161.32642,259.75286 162.22849,259.75285 C 163.03747,259.75286 163.67643,260.01417 164.14537,260.53679 C 164.61787,261.05584 164.85413,261.76282 164.85413,262.65772 M 163.86616,262.36776 C 163.85900,261.82725 163.70686,261.39591 163.40975,261.07374 C 163.11622,260.75157 162.72605,260.59049 162.23922,260.59048 C 161.68796,260.59049 161.24588,260.74620 160.91298,261.05763 C 160.58365,261.36905 160.39393,261.80756 160.34382,262.37314 L 163.86616,262.36776 M 169.40204,259.89783 L 170.39001,259.89783 L 171.62499,264.59071 L 172.85458,259.89783 L 174.01975,259.89783 L 175.25472,264.59071 L 176.48431,259.89783 L 177.47229,259.89783 L 175.89905,265.91159 L 174.73389,265.91159 L 173.43985,260.98246 L 172.14045,265.91159 L 170.97529,265.91159 L 169.40204,259.89783 M 181.70877,262.88860 C 180.91052,262.88860 180.35747,262.97989 180.04962,263.16244 C 179.74177,263.34501 179.58785,263.65643 179.58785,264.09672 C 179.58785,264.44752 179.70239,264.72674 179.93149,264.93435 C 180.16416,265.13840 180.47917,265.24041 180.87651,265.24041 C 181.42419,265.24041 181.86269,265.04711 182.19202,264.66051 C 182.52492,264.27034 182.69137,263.75308 182.69137,263.10875 L 182.69137,262.88860 L 181.70877,262.88860 M 183.67935,262.48052 L 183.67935,265.91159 L 182.69137,265.91159 L 182.69137,264.99878 C 182.46585,265.36390 182.18486,265.63417 181.84837,265.80957 C 181.51189,265.98140 181.10023,266.06730 180.61341,266.06730 C 179.99771,266.06730 179.50730,265.89548 179.14218,265.55184 C 178.78064,265.20462 178.59987,264.74106 178.59987,264.16115 C 178.59987,263.48461 178.82539,262.97451 179.27642,262.63087 C 179.73103,262.28722 180.40758,262.11541 181.30607,262.11540 L 182.69137,262.11540 L 182.69137,262.01875 C 182.69137,261.56414 182.54103,261.21334 182.24035,260.96635 C 181.94323,260.71578 181.52441,260.59049 180.98390,260.59048 C 180.64025,260.59049 180.30556,260.63165 179.97981,260.71398 C 179.65407,260.79632 179.34085,260.91982 179.04016,261.08447 L 179.04016,260.17167 C 179.40171,260.03208 179.75251,259.92826 180.09257,259.86024 C 180.43264,259.78865 180.76375,259.75286 181.08591,259.75285 C 181.95577,259.75286 182.60546,259.97838 183.03501,260.42940 C 183.46456,260.88044 183.67935,261.56414 183.67935,262.48052 M 185.71973,259.89783 L 186.70771,259.89783 L 186.70771,265.91159 L 185.71973,265.91159 L 185.71973,259.89783 M 185.71973,257.55675 L 186.70771,257.55675 L 186.70771,258.80784 L 185.71973,258.80784 L 185.71973,257.55675 M 189.74681,258.19036 L 189.74681,259.89783 L 191.78182,259.89783 L 191.78182,260.66565 L 189.74681,260.66565 L 189.74681,263.93027 C 189.74681,264.42068 189.81303,264.73569 189.94547,264.87529 C 190.08150,265.01489 190.35533,265.08470 190.76699,265.08470 L 191.78182,265.08470 L 191.78182,265.91159 L 190.76699,265.91159 C 190.00453,265.91159 189.47833,265.77019 189.18839,265.48741 C 188.89843,265.20103 188.75346,264.68199 188.75346,263.93027 L 188.75346,260.66565 L 188.02859,260.66565 L 188.02859,259.89783 L 188.75346,259.89783 L 188.75346,258.19036 L 189.74681,258.19036 M 193.22619,264.54776 L 194.35915,264.54776 L 194.35915,265.91159 L 193.22619,265.91159 L 193.22619,264.54776"
     id="text3642" />
</svg>
