<?xml version="1.0" encoding="UTF-8" standalone="no"?>
<!-- Created with Sodipodi ("http://www.sodipodi.com/") -->
<svg
   xmlns:dc="http://purl.org/dc/elements/1.1/"
   xmlns:cc="http://web.resource.org/cc/"
   xmlns:rdf="http://www.w3.org/1999/02/22-rdf-syntax-ns#"
   xmlns:svg="http://www.w3.org/2000/svg"
   xmlns="http://www.w3.org/2000/svg"
   xmlns:sodipodi="http://inkscape.sourceforge.net/DTD/sodipodi-0.dtd"
   xmlns:inkscape="http://www.inkscape.org/namespaces/inkscape"
   id="svg1"
   sodipodi:version="0.32"
   inkscape:version="0.42.2"
   width="8.0000000cm"
   height="6.0000000cm"
   sodipodi:docname="splash-l.svg"
   sodipodi:docbase="/home/reno/Desktop/artwork">
  <metadata
     id="metadata27">
    <rdf:RDF>
      <cc:Work
         rdf:about="">
        <dc:format>image/svg+xml</dc:format>
        <dc:type
           rdf:resource="http://purl.org/dc/dcmitype/StillImage" />
      </cc:Work>
    </rdf:RDF>
  </metadata>
  <defs
     id="defs3" />
  <sodipodi:namedview
     id="base"
     pagecolor="#ffffff"
     bordercolor="#666666"
     borderopacity="1.0"
     inkscape:pageopacity="0.0"
     inkscape:pageshadow="2"
     inkscape:zoom="3.1279631"
     inkscape:cx="141.73228"
     inkscape:cy="113.99345"
     inkscape:window-width="1386"
     inkscape:window-height="1022"
     showguides="true"
     snaptoguides="true"
     inkscape:window-x="121"
     inkscape:window-y="106"
     inkscape:current-layer="svg1" />
  <g
     id="g1401"
     transform="matrix(0.632672,0.000000,0.000000,0.632672,65.87047,-320.0595)">
    <path
       style="font-size:12.000000px;fill:#3673b9;fill-rule:evenodd;stroke:#000000;stroke-width:5.0000000;stroke-linecap:round;stroke-linejoin:round"
       d="M 94.024300,653.14400 C 92.914800,643.84800 92.792500,633.53000 100.93700,626.20500 C 110.40300,617.65400 128.33900,609.24000 161.17900,608.43700 C 198.93700,607.89500 218.38600,616.40600 225.07600,630.58000 C 228.36500,637.91400 224.72100,648.08900 221.44800,650.92700 C 213.78000,658.20700 201.68300,661.71100 188.67300,661.84800 C 186.64100,661.92800 175.96700,663.21100 169.53100,664.71300 C 164.67300,665.76300 155.85000,669.83400 156.45900,677.06300 C 156.84400,681.44700 161.19300,684.03400 165.18300,684.87100 C 170.44500,686.33900 176.02700,688.99000 178.25800,694.85900 C 181.54600,704.10500 177.95900,710.95700 168.80000,715.90300 C 161.70900,719.63400 154.41500,719.21300 147.27800,719.07100 C 140.14100,718.92900 133.16200,719.06600 126.70000,716.62600 C 117.33000,713.31500 110.46300,707.24700 105.64500,695.93300 C 97.880600,678.55500 95.433800,662.38300 94.024300,653.14400 z "
       id="path1403"
       sodipodi:nodetypes="cssssssssssssss" />
    <path
       style="font-size:12.000000px;fill:#3673b9;fill-rule:evenodd;stroke:#000000;stroke-width:5.0000000;stroke-linecap:round;stroke-linejoin:round"
       d="M 194.06200,704.69000 C 193.14000,694.18500 196.65200,689.20800 200.95300,687.12400 C 209.47200,682.64900 222.59000,684.24800 225.98700,684.09900 C 229.38500,683.95100 240.20900,683.73500 243.86500,684.20500 C 249.75400,684.60100 256.04900,688.54300 258.82000,692.57100 C 265.33200,701.23200 261.46900,710.70000 256.41100,712.48900 C 249.96200,715.24400 244.28900,715.67700 227.77400,716.56400 C 204.06500,718.34400 195.45600,716.62200 194.06200,704.69000 z "
       id="path1405"
       sodipodi:nodetypes="csssssss" />
    <path
       style="font-size:12.000000px;fill:#3673b9;fill-rule:evenodd;stroke:#000000;stroke-width:5.0000000;stroke-linecap:round;stroke-linejoin:round"
       d="M 223.57200,534.43700 C 234.34600,534.71200 236.99600,549.59900 235.82900,563.59600 C 235.42100,567.17400 233.42900,584.09200 233.00200,587.69200 C 231.88200,597.71000 226.09400,605.34000 215.92800,601.76400 C 208.09500,599.27900 204.24500,594.86200 204.96100,585.10200 C 205.23600,571.73100 206.46300,562.43500 206.90100,558.88100 C 208.57200,545.91000 212.50900,533.78300 223.57200,534.43700 z "
       id="path1407"
       sodipodi:nodetypes="cssssss" />
    <path
       style="font-size:12.000000px;fill:#3673b9;fill-rule:evenodd;stroke:#000000;stroke-width:5.0000000;stroke-linecap:round;stroke-linejoin:round"
       d="M 190.99600,543.84400 C 191.24800,547.43500 190.83000,570.43000 190.84200,574.05500 C 190.52300,588.35700 184.24100,590.16500 176.73700,590.02900 C 168.36500,589.86800 163.49000,586.73400 162.86800,574.19100 C 162.79600,570.77900 162.30200,547.26500 162.34300,543.72400 C 162.46700,532.53500 165.29600,520.12200 176.46100,519.77700 C 188.95300,519.79900 190.56900,532.18000 190.99600,543.84400 z "
       id="path1409"
       sodipodi:nodetypes="cssssss" />
    <path
       style="font-size:12.000000px;fill:#3673b9;fill-rule:evenodd;stroke:#000000;stroke-width:5.0000000;stroke-linecap:round;stroke-linejoin:round"
       d="M 130.75800,527.27800 C 119.98100,527.40200 117.12400,542.25000 118.09400,556.26200 C 118.45200,559.84600 120.20700,576.79000 120.58400,580.39500 C 121.56300,590.42800 126.70600,597.39900 135.90500,595.19800 C 144.24400,593.30800 148.70100,589.50600 148.65900,578.19800 C 148.24400,564.83100 147.47300,555.51300 147.08600,551.95300 C 145.59700,538.96000 141.82900,526.77900 130.75800,527.27800 z "
       id="path1411"
       sodipodi:nodetypes="cssssss" />
    <path
       style="font-size:12.000000px;fill:#3673b9;fill-rule:evenodd;stroke:#000000;stroke-width:5.0000000;stroke-linecap:round;stroke-linejoin:round"
       d="M 85.985600,547.51200 C 75.810100,548.42000 74.216900,562.55700 76.178700,575.63100 C 76.784300,578.96400 79.706000,594.21600 81.361600,598.08600 C 84.042800,607.18700 88.785900,615.40600 97.975700,610.33300 C 107.28300,605.46700 110.04500,600.46700 108.76200,592.93600 C 106.17000,580.73900 104.92000,575.86400 103.25700,569.46300 C 99.908700,557.61300 96.410300,546.23200 85.985600,547.51200 z "
       id="path1413"
       sodipodi:nodetypes="cssssss" />
  </g>
  <path
     style="font-size:24.000000px;font-style:normal;font-weight:normal;fill:#000000;fill-opacity:1.0000000;stroke:none;stroke-width:1.0000000pt;stroke-linecap:butt;stroke-linejoin:miter;stroke-opacity:1.0000000;font-family:Bitstream Vera Sans"
     d="M 119.55592,176.80189 L 119.55592,168.87373 L 113.03148,168.87373 L 113.03148,165.59173 L 123.51012,165.59173 L 123.51012,178.26495 C 121.96795,179.35894 120.26764,180.18932 118.40919,180.75610 C 116.55069,181.30969 114.56701,181.58648 112.45812,181.58648 C 107.84488,181.58648 104.23338,180.24206 101.62361,177.55319 C 99.027013,174.85118 97.728719,171.09468 97.728719,166.28373 C 97.728719,161.45960 99.027013,157.70311 101.62361,155.01424 C 104.23338,152.31223 107.84488,150.96120 112.45812,150.96119 C 114.38248,150.96120 116.20800,151.19846 117.93468,151.67294 C 119.67452,152.14749 121.27596,152.84604 122.73905,153.76866 L 122.73905,158.01943 C 121.26278,156.76730 119.69429,155.82488 118.03354,155.19218 C 116.37277,154.55953 114.62632,154.24320 112.79423,154.24316 C 109.18271,154.24320 106.46750,155.25152 104.64858,157.26813 C 102.84283,159.28479 101.93994,162.28998 101.93995,166.28373 C 101.93994,170.26429 102.84283,173.26288 104.64858,175.27952 C 106.46750,177.29616 109.18271,178.30449 112.79423,178.30449 C 114.20454,178.30449 115.46330,178.18587 116.57049,177.94861 C 117.67764,177.69816 118.67278,177.31594 119.55592,176.80189 M 134.81913,154.77699 L 134.81913,165.86852 L 139.84098,165.86852 C 141.69943,165.86854 143.13612,165.38746 144.15106,164.42524 C 145.16595,163.46306 145.67340,162.09227 145.67341,160.31288 C 145.67340,158.54667 145.16595,157.18248 144.15106,156.22026 C 143.13612,155.25812 141.69943,154.77701 139.84098,154.77699 L 134.81913,154.77699 M 130.82539,151.49500 L 139.84098,151.49500 C 143.14931,151.49503 145.64705,152.24631 147.33419,153.74890 C 149.03446,155.23834 149.88462,157.42632 149.88464,160.31288 C 149.88462,163.22583 149.03446,165.42699 147.33419,166.91639 C 145.64705,168.40581 143.14931,169.15051 139.84098,169.15051 L 134.81913,169.15051 L 134.81913,181.01312 L 130.82539,181.01312 L 130.82539,151.49500 M 155.26235,151.49500 L 173.92618,151.49500 L 173.92618,154.85607 L 159.25610,154.85607 L 159.25610,163.59487 L 173.31328,163.59487 L 173.31328,166.95594 L 159.25610,166.95594 L 159.25610,177.65204 L 174.28207,177.65204 L 174.28207,181.01312 L 155.26235,181.01312 L 155.26235,151.49500 M 197.57231,177.65204 L 211.51087,177.65204 L 211.51087,181.01312 L 192.76797,181.01312 L 192.76797,177.65204 C 194.28373,176.08355 196.34651,173.98123 198.95628,171.34510 C 201.57923,168.69578 203.22680,166.98888 203.89903,166.22440 C 205.17754,164.78773 206.06724,163.57510 206.56812,162.58654 C 207.08214,161.58484 207.33918,160.60286 207.33919,159.64066 C 207.33918,158.07217 206.78558,156.79367 205.67842,155.80509 C 204.58442,154.81656 203.15432,154.32229 201.38812,154.32225 C 200.13595,154.32229 198.81128,154.53977 197.41414,154.97470 C 196.03017,155.40969 194.54734,156.06871 192.96568,156.95180 L 192.96568,152.91852 C 194.57370,152.27270 196.07629,151.78501 197.47345,151.45545 C 198.87060,151.12597 200.14912,150.96120 201.30904,150.96119 C 204.36694,150.96120 206.80536,151.72568 208.62430,153.25462 C 210.44322,154.78362 211.35269,156.82660 211.35271,159.38362 C 211.35269,160.59627 211.12203,161.74958 210.66073,162.84357 C 210.21255,163.92439 209.38877,165.20291 208.18932,166.67913 C 207.85980,167.06139 206.81195,168.16856 205.04575,170.00065 C 203.27953,171.81960 200.78840,174.37008 197.57231,177.65204 M 219.91353,175.99128 L 224.08525,175.99128 L 224.08525,181.01312 L 219.91353,181.01312 L 219.91353,175.99128 M 231.79592,151.49500 L 250.77609,151.49500 L 250.77609,153.19533 L 240.06022,181.01312 L 235.88851,181.01312 L 245.97172,154.85607 L 231.79592,154.85607 L 231.79592,151.49500"
     id="text1326" />
  <path
     style="font-size:46.729351px;font-style:normal;font-variant:normal;font-weight:bold;font-stretch:normal;text-align:start;line-height:125.00000%;writing-mode:lr-tb;text-anchor:start;fill:#000000;fill-opacity:0.50819671;stroke:none;stroke-width:1.0000000px;stroke-linecap:butt;stroke-linejoin:miter;stroke-opacity:1.0000000;font-family:Bitstream Vera Sans"
     d="M 9.5309328,225.67583 L 9.5309328,200.38347 L 14.751653,200.38347 L 14.751653,216.30379 L 19.739155,216.30379 L 19.739155,201.33285 L 24.959877,201.33285 L 24.959877,216.30379 L 36.316303,216.30379 L 36.316303,225.67583 L 9.5309328,225.67583 M 27.274219,182.68611 C 27.274227,184.50374 27.501473,185.87505 27.955964,186.80008 C 28.410464,187.70890 29.080253,188.16330 29.965319,188.16328 C 30.778634,188.16330 31.418513,187.79816 31.884962,187.06787 C 32.339463,186.32135 32.566709,185.29082 32.566709,183.97629 C 32.566709,182.33722 32.136134,180.95778 31.274986,179.83799 C 30.401878,178.71823 29.313483,178.15834 28.009791,178.15832 L 27.274219,178.15832 L 27.274219,182.68611 M 24.852232,169.37051 L 36.316303,169.37051 L 36.316303,178.15832 L 33.338156,178.15832 C 34.558120,179.32681 35.449170,180.64132 36.011314,182.10188 C 36.561490,183.56247 36.836579,185.33952 36.836579,187.43301 C 36.836579,190.25680 36.232577,192.55315 35.024579,194.32207 C 33.804616,196.07476 32.225844,196.95112 30.288250,196.95110 C 27.932057,196.95112 26.203775,195.85568 25.103404,193.66481 C 24.003060,191.45771 23.452884,188.00101 23.452865,183.29469 L 23.452865,178.15832 L 22.950532,178.15832 C 21.933905,178.15834 21.192359,178.70200 20.725890,179.78929 C 20.247491,180.87663 20.008277,182.57254 20.008269,184.87698 C 20.008277,186.74329 20.145821,188.47977 20.420901,190.08639 C 20.696009,191.69304 21.108640,193.18607 21.658808,194.56549 L 16.761008,194.56549 C 16.426138,192.69921 16.174967,190.82480 16.007503,188.94227 C 15.828118,187.05975 15.738416,185.17723 15.738398,183.29469 C 15.738416,178.37743 16.456038,174.83146 17.891270,172.65681 C 19.314573,170.46596 21.634900,169.37054 24.852232,169.37051 M 19.559752,135.94758 C 18.315880,134.84406 17.371013,133.53766 16.725133,132.02836 C 16.067322,130.50290 15.738416,128.83135 15.738398,127.01370 C 15.738416,123.88162 16.450064,121.49601 17.873328,119.85688 C 19.296640,118.21781 21.365786,117.39827 24.080784,117.39822 L 36.316303,117.39822 L 36.316303,126.16170 L 25.838967,126.16170 C 25.683499,126.14551 25.522029,126.13740 25.354575,126.13736 C 25.187139,126.12117 24.947926,126.11305 24.636944,126.11302 C 23.213670,126.11305 22.185077,126.39706 21.551163,126.96502 C 20.905311,127.53305 20.582381,128.44998 20.582362,129.71578 C 20.582381,131.37113 21.084714,132.65320 22.089382,133.56197 C 23.094068,134.45458 24.547252,134.91709 26.448954,134.94952 L 36.316303,134.94952 L 36.316303,143.71300 L 25.838967,143.71300 C 23.614344,143.71302 22.185077,143.97267 21.551163,144.49198 C 20.905311,145.01131 20.582381,145.93634 20.582362,147.26707 C 20.582381,148.93864 21.090699,150.22882 22.107314,151.13761 C 23.112011,152.04642 24.553238,152.50082 26.431011,152.50081 L 36.316303,152.50081 L 36.316303,161.26429 L 16.222790,161.26429 L 16.222790,152.50081 L 19.165052,152.50081 C 18.028834,151.42973 17.173667,150.20448 16.599547,148.82503 C 16.025463,147.42938 15.738416,145.89576 15.738398,144.22420 C 15.738416,142.34169 16.073306,140.67826 16.743066,139.23388 C 17.412873,137.78956 18.351764,136.69413 19.559752,135.94758 M 16.222790,109.21898 L 16.222790,100.50420 L 36.316303,100.50420 L 36.316303,109.21898 L 16.222790,109.21898 M 8.4006700,109.21898 L 8.4006700,100.50420 L 13.639342,100.50420 L 13.639342,109.21898 L 8.4006700,109.21898 M 8.4006700,92.081523 L 8.4006700,83.366729 L 36.316303,83.366729 L 36.316303,92.081523 L 8.4006700,92.081523 M 16.222790,74.944060 L 16.222790,66.229269 L 36.316303,66.229269 L 36.316303,74.944060 L 16.222790,74.944060 M 8.4006700,74.944060 L 8.4006700,66.229269 L 13.639342,66.229269 L 13.639342,74.944060 L 8.4006700,74.944060 M 27.274219,45.586411 C 27.274227,47.404036 27.501473,48.775356 27.955964,49.700376 C 28.410464,50.609193 29.080253,51.063594 29.965319,51.063584 C 30.778634,51.063594 31.418513,50.698450 31.884962,49.968149 C 32.339463,49.221644 32.566709,48.191124 32.566709,46.876591 C 32.566709,45.237512 32.136134,43.858077 31.274986,42.738282 C 30.401878,41.618525 29.313483,41.058637 28.009791,41.058616 L 27.274219,41.058616 L 27.274219,45.586411 M 24.852232,32.270797 L 36.316303,32.270797 L 36.316303,41.058616 L 33.338156,41.058616 C 34.558120,42.227099 35.449170,43.541620 36.011314,45.002180 C 36.561490,46.462775 36.836579,48.239810 36.836579,50.333294 C 36.836579,53.157089 36.232577,55.453442 35.024579,57.222360 C 33.804616,58.975057 32.225844,59.851405 30.288250,59.851403 C 27.932057,59.851405 26.203775,58.755971 25.103404,56.565099 C 24.003060,54.358009 23.452884,50.901309 23.452865,46.194986 L 23.452865,41.058616 L 22.950532,41.058616 C 21.933905,41.058637 21.192359,41.602296 20.725890,42.689596 C 20.247491,43.776935 20.008277,45.472827 20.008269,47.777280 C 20.008277,49.643589 20.145821,51.380054 20.420901,52.986679 C 20.696009,54.593324 21.108640,56.086360 21.658808,57.465789 L 16.761008,57.465789 C 16.426138,55.599500 16.174967,53.725092 16.007503,51.842559 C 15.828118,49.960048 15.738416,48.077525 15.738398,46.194986 C 15.738416,41.277724 16.456038,37.731765 17.891270,35.557101 C 19.314573,33.366260 21.634900,32.270827 24.852232,32.270797 M 21.694683,3.8625394 C 21.431572,4.6253096 21.240201,5.3880558 21.120580,6.1507802 C 20.989038,6.8973192 20.923254,7.6519516 20.923235,8.4146776 C 20.923254,10.654250 21.455488,12.382600 22.519957,13.599734 C 23.572485,14.800669 25.085472,15.401127 27.058931,15.401114 L 36.316303,15.401114 L 36.316303,24.115904 L 16.222790,24.115904 L 16.222790,15.401114 L 19.523868,15.401114 C 18.208237,14.281351 17.251402,12.999289 16.653364,11.554924 C 16.043406,10.094362 15.738416,8.3497828 15.738398,6.3211811 C 15.738416,6.0290870 15.750375,5.7126286 15.774273,5.3718043 C 15.786259,5.0310257 15.822134,4.5360518 15.881917,3.8868821 L 21.694683,3.8625394"
     id="text1325" />
  <path
     style="font-size:12.000000px;font-style:normal;font-weight:normal;line-height:125.00000%;fill:#000000;fill-opacity:1.0000000;stroke:none;stroke-width:1.0000000px;stroke-linecap:butt;stroke-linejoin:miter;stroke-opacity:1.0000000;font-family:Bitstream Vera Sans"
     d="M 117.32563,208.90199 L 117.32563,211.85930 L 119.07732,211.85930 C 119.66481,211.85930 120.09913,211.73856 120.38027,211.49708 C 120.66500,211.25199 120.80737,210.87894 120.80738,210.37795 C 120.80737,209.87335 120.66500,209.50211 120.38027,209.26421 C 120.09913,209.02274 119.66481,208.90199 119.07732,208.90199 L 117.32563,208.90199 M 117.32563,205.58245 L 117.32563,208.01534 L 118.94216,208.01534 C 119.47559,208.01535 119.87206,207.91622 120.13158,207.71798 C 120.39467,207.51615 120.52624,207.20978 120.52624,206.79889 C 120.52624,206.39162 120.39467,206.08705 120.13158,205.88521 C 119.87206,205.68337 119.47559,205.58245 118.94216,205.58245 L 117.32563,205.58245 M 116.23355,204.68497 L 119.02325,204.68497 C 119.85585,204.68498 120.49740,204.85799 120.94794,205.20400 C 121.39847,205.55002 121.62374,206.04200 121.62375,206.67995 C 121.62374,207.17375 121.50841,207.56660 121.27774,207.85854 C 121.04706,208.15051 120.70826,208.33253 120.26132,208.40460 C 120.79837,208.51994 121.21466,208.76143 121.51021,209.12906 C 121.80936,209.49310 121.95894,209.94903 121.95894,210.49688 C 121.95894,211.21775 121.71384,211.77461 121.22367,212.16747 C 120.73349,212.56034 120.03606,212.75677 119.13138,212.75677 L 116.23355,212.75677 L 116.23355,204.68497 M 126.12730,207.39900 C 125.59386,207.39901 125.17216,207.60806 124.86220,208.02615 C 124.55223,208.44065 124.39724,209.01012 124.39725,209.73458 C 124.39724,210.45905 124.55042,211.03033 124.85680,211.44842 C 125.16676,211.86291 125.59026,212.07015 126.12730,212.07015 C 126.65712,212.07015 127.07703,211.86110 127.38700,211.44302 C 127.69696,211.02492 127.85195,210.45543 127.85195,209.73458 C 127.85195,209.01733 127.69696,208.44966 127.38700,208.03156 C 127.07703,207.60986 126.65712,207.39901 126.12730,207.39900 M 126.12730,206.55559 C 126.99232,206.55561 127.67174,206.83675 128.16552,207.39900 C 128.65931,207.96128 128.90619,208.73979 128.90620,209.73458 C 128.90619,210.72575 128.65931,211.50430 128.16552,212.07015 C 127.67174,212.63243 126.99232,212.91355 126.12730,212.91355 C 125.25866,212.91355 124.57746,212.63243 124.08368,212.07015 C 123.59349,211.50430 123.34840,210.72575 123.34840,209.73458 C 123.34840,208.73979 123.59349,207.96128 124.08368,207.39900 C 124.57746,206.83675 125.25866,206.55561 126.12730,206.55559 M 132.89614,207.39900 C 132.36271,207.39901 131.94101,207.60806 131.63104,208.02615 C 131.32106,208.44065 131.16608,209.01012 131.16608,209.73458 C 131.16608,210.45905 131.31927,211.03033 131.62563,211.44842 C 131.93560,211.86291 132.35910,212.07015 132.89614,212.07015 C 133.42597,212.07015 133.84586,211.86110 134.15584,211.44302 C 134.46580,211.02492 134.62079,210.45543 134.62079,209.73458 C 134.62079,209.01733 134.46580,208.44966 134.15584,208.03156 C 133.84586,207.60986 133.42597,207.39901 132.89614,207.39900 M 132.89614,206.55559 C 133.76117,206.55561 134.44057,206.83675 134.93437,207.39900 C 135.42814,207.96128 135.67505,208.73979 135.67505,209.73458 C 135.67505,210.72575 135.42814,211.50430 134.93437,212.07015 C 134.44057,212.63243 133.76117,212.91355 132.89614,212.91355 C 132.02752,212.91355 131.34630,212.63243 130.85251,212.07015 C 130.36233,211.50430 130.11724,210.72575 130.11724,209.73458 C 130.11724,208.73979 130.36233,207.96128 130.85251,207.39900 C 131.34630,206.83675 132.02752,206.55561 132.89614,206.55559 M 138.30257,204.98234 L 138.30257,206.70158 L 140.35160,206.70158 L 140.35160,207.47469 L 138.30257,207.47469 L 138.30257,210.76180 C 138.30256,211.25559 138.36924,211.57277 138.50261,211.71333 C 138.63957,211.85389 138.91529,211.92418 139.32979,211.92418 L 140.35160,211.92418 L 140.35160,212.75677 L 139.32979,212.75677 C 138.56208,212.75677 138.03225,212.61439 137.74031,212.32967 C 137.44835,212.04132 137.30238,211.51870 137.30238,210.76180 L 137.30238,207.47469 L 136.57251,207.47469 L 136.57251,206.70158 L 137.30238,206.70158 L 137.30238,204.98234 L 138.30257,204.98234 M 141.66537,206.70158 L 142.66015,206.70158 L 142.66015,212.75677 L 141.66537,212.75677 L 141.66537,206.70158 M 141.66537,204.34437 L 142.66015,204.34437 L 142.66015,205.60408 L 141.66537,205.60408 L 141.66537,204.34437 M 149.76960,209.10203 L 149.76960,212.75677 L 148.77482,212.75677 L 148.77482,209.13448 C 148.77482,208.56140 148.66308,208.13248 148.43962,207.84774 C 148.21615,207.56300 147.88094,207.42064 147.43403,207.42063 C 146.89699,207.42064 146.47348,207.59184 146.16352,207.93424 C 145.85355,208.27666 145.69857,208.74341 145.69857,209.33451 L 145.69857,212.75677 L 144.69837,212.75677 L 144.69837,206.70158 L 145.69857,206.70158 L 145.69857,207.64229 C 145.93644,207.27827 146.21577,207.00614 146.53655,206.82591 C 146.86094,206.64571 147.23398,206.55561 147.65569,206.55559 C 148.35131,206.55561 148.87753,206.77186 149.23435,207.20437 C 149.59118,207.63330 149.76960,208.26583 149.76960,209.10203 M 155.74911,209.65890 C 155.74911,208.93804 155.59953,208.37937 155.30037,207.98291 C 155.00481,207.58643 154.58852,207.38820 154.05149,207.38820 C 153.51806,207.38820 153.10176,207.58643 152.80260,207.98291 C 152.50705,208.37937 152.35928,208.93804 152.35928,209.65890 C 152.35928,210.37615 152.50705,210.93301 152.80260,211.32947 C 153.10176,211.72594 153.51806,211.92418 154.05149,211.92418 C 154.58852,211.92418 155.00481,211.72594 155.30037,211.32947 C 155.59953,210.93301 155.74911,210.37615 155.74911,209.65890 M 156.74389,212.00528 C 156.74388,213.03611 156.51501,213.80201 156.05727,214.30301 C 155.59953,214.80761 154.89849,215.05991 153.95417,215.05991 C 153.60455,215.05991 153.27476,215.03287 152.96479,214.97881 C 152.65482,214.92835 152.35386,214.84906 152.06191,214.74093 L 152.06191,213.77317 C 152.35386,213.93177 152.64221,214.04890 152.92695,214.12459 C 153.21169,214.20029 153.50184,214.23813 153.79740,214.23813 C 154.44977,214.23813 154.93814,214.06693 155.26253,213.72452 C 155.58691,213.38572 155.74911,212.87211 155.74911,212.18370 L 155.74911,211.69172 C 155.54365,212.04853 155.28054,212.31525 154.95977,212.49185 C 154.63899,212.66846 154.25513,212.75677 153.80820,212.75677 C 153.06571,212.75677 152.46740,212.47383 152.01327,211.90796 C 151.55913,211.34210 151.33205,210.59240 151.33205,209.65890 C 151.33205,208.72178 151.55913,207.97028 152.01327,207.40441 C 152.46740,206.83855 153.06571,206.55561 153.80820,206.55559 C 154.25513,206.55561 154.63899,206.64391 154.95977,206.82051 C 155.28054,206.99713 155.54365,207.26385 155.74911,207.62066 L 155.74911,206.70158 L 156.74389,206.70158 L 156.74389,212.00528 M 158.93349,211.38354 L 160.07424,211.38354 L 160.07424,212.75677 L 158.93349,212.75677 L 158.93349,211.38354 M 166.97825,205.58245 L 166.97825,208.61546 L 168.35149,208.61546 C 168.85968,208.61546 169.25255,208.48389 169.53009,208.22078 C 169.80761,207.95767 169.94637,207.58283 169.94638,207.09625 C 169.94637,206.61327 169.80761,206.24023 169.53009,205.97711 C 169.25255,205.71401 168.85968,205.58245 168.35149,205.58245 L 166.97825,205.58245 M 165.88616,204.68497 L 168.35149,204.68497 C 169.25614,204.68498 169.93916,204.89042 170.40051,205.30132 C 170.86546,205.70860 171.09794,206.30692 171.09795,207.09625 C 171.09794,207.89280 170.86546,208.49470 170.40051,208.90199 C 169.93916,209.30929 169.25614,209.51292 168.35149,209.51291 L 166.97825,209.51291 L 166.97825,212.75677 L 165.88616,212.75677 L 165.88616,204.68497 M 172.52525,204.34437 L 173.52003,204.34437 L 173.52003,212.75677 L 172.52525,212.75677 L 172.52525,204.34437 M 180.77544,209.48048 L 180.77544,209.96706 L 176.20161,209.96706 C 176.24486,210.65187 176.45031,211.17448 176.81794,211.53491 C 177.18918,211.89174 177.70459,212.07015 178.36418,212.07015 C 178.74623,212.07015 179.11567,212.02330 179.47250,211.92959 C 179.83292,211.83588 180.18974,211.69531 180.54298,211.50789 L 180.54298,212.44860 C 180.18614,212.59999 179.82031,212.71533 179.44547,212.79462 C 179.07060,212.87391 178.69037,212.91355 178.30471,212.91355 C 177.33877,212.91355 176.57285,212.63243 176.00699,212.07015 C 175.44471,211.50789 175.16357,210.74738 175.16357,209.78865 C 175.16357,208.79747 175.43029,208.01173 175.96373,207.43144 C 176.50076,206.84755 177.22342,206.55561 178.13171,206.55559 C 178.94627,206.55561 179.58963,206.81871 180.06180,207.34494 C 180.53755,207.86757 180.77544,208.57942 180.77544,209.48048 M 179.78066,209.18852 C 179.77345,208.64429 179.62027,208.20998 179.32111,207.88559 C 179.02556,207.56120 178.63271,207.39901 178.14251,207.39900 C 177.58746,207.39901 177.14233,207.55579 176.80714,207.86936 C 176.47554,208.18294 176.28451,208.62446 176.23405,209.19395 L 179.78066,209.18852 M 185.16006,209.71296 C 184.35630,209.71296 183.79944,209.80487 183.48947,209.98869 C 183.17949,210.17251 183.02451,210.48608 183.02451,210.92940 C 183.02451,211.28261 183.13985,211.56376 183.37053,211.77279 C 183.60481,211.97825 183.92199,212.08097 184.32206,212.08097 C 184.87351,212.08097 185.31504,211.88634 185.64664,211.49708 C 185.98183,211.10422 186.14943,210.58339 186.14944,209.93462 L 186.14944,209.71296 L 185.16006,209.71296 M 187.14420,209.30207 L 187.14420,212.75677 L 186.14944,212.75677 L 186.14944,211.83767 C 185.92236,212.20531 185.63942,212.47744 185.30063,212.65405 C 184.96181,212.82706 184.54733,212.91355 184.05715,212.91355 C 183.43721,212.91355 182.94342,212.74055 182.57579,212.39454 C 182.21175,212.04493 182.02974,211.57817 182.02974,210.99427 C 182.02974,210.31307 182.25680,209.79946 182.71095,209.45345 C 183.16869,209.10743 183.84989,208.93443 184.75457,208.93442 L 186.14944,208.93442 L 186.14944,208.83711 C 186.14943,208.37937 185.99804,208.02615 185.69529,207.77746 C 185.39613,207.52517 184.97443,207.39901 184.43018,207.39900 C 184.08418,207.39901 183.74718,207.44045 183.41920,207.52335 C 183.09119,207.60626 182.77582,207.73061 182.47306,207.89639 L 182.47306,206.97730 C 182.83709,206.83675 183.19031,206.73221 183.53274,206.66372 C 183.87513,206.59164 184.20851,206.55561 184.53292,206.55559 C 185.40875,206.55561 186.06293,206.78268 186.49545,207.23681 C 186.92795,207.69096 187.14420,208.37937 187.14420,209.30207 M 193.05883,206.87998 L 193.05883,207.82071 C 192.77770,207.67654 192.48576,207.56841 192.18301,207.49632 C 191.88024,207.42424 191.56667,207.38820 191.24228,207.38820 C 190.74850,207.38820 190.37725,207.46389 190.12857,207.61527 C 189.88347,207.76665 189.76092,207.99372 189.76094,208.29647 C 189.76092,208.52715 189.84923,208.70917 190.02583,208.84252 C 190.20245,208.97228 190.55746,209.09663 191.09090,209.21558 L 191.43150,209.29126 C 192.13794,209.44264 192.63895,209.65709 192.93450,209.93462 C 193.23365,210.20855 193.38322,210.59240 193.38323,211.08619 C 193.38322,211.64845 193.15975,212.09359 192.71283,212.42158 C 192.26951,212.74956 191.65857,212.91355 190.88006,212.91355 C 190.55567,212.91355 190.21687,212.88111 189.86364,212.81623 C 189.51402,212.75497 189.14458,212.66126 188.75533,212.53510 L 188.75533,211.50789 C 189.12296,211.69892 189.48519,211.84309 189.84202,211.94041 C 190.19883,212.03411 190.55206,212.08097 190.90168,212.08097 C 191.37023,212.08097 191.73066,212.00166 191.98296,211.84308 C 192.23526,211.68089 192.36141,211.45382 192.36142,211.16188 C 192.36141,210.89155 192.26951,210.68431 192.08568,210.54015 C 191.90547,210.39597 191.50719,210.25721 190.89087,210.12385 L 190.54486,210.04275 C 189.92851,209.91299 189.48340,209.71476 189.20946,209.44804 C 188.93554,209.17772 188.79857,208.80828 188.79857,208.33971 C 188.79857,207.77025 189.00042,207.33054 189.40410,207.02055 C 189.80777,206.71059 190.38086,206.55561 191.12333,206.55559 C 191.49097,206.55561 191.83699,206.58264 192.16137,206.63671 C 192.48576,206.69078 192.78491,206.77186 193.05883,206.87998 M 200.15207,209.48048 L 200.15207,209.96706 L 195.57824,209.96706 C 195.62149,210.65187 195.82693,211.17448 196.19457,211.53491 C 196.56581,211.89174 197.08121,212.07015 197.74081,212.07015 C 198.12285,212.07015 198.49229,212.02330 198.84912,211.92959 C 199.20955,211.83588 199.56637,211.69531 199.91959,211.50789 L 199.91959,212.44860 C 199.56276,212.59999 199.19693,212.71533 198.82209,212.79462 C 198.44724,212.87391 198.06698,212.91355 197.68134,212.91355 C 196.71539,212.91355 195.94948,212.63243 195.38361,212.07015 C 194.82134,211.50789 194.54020,210.74738 194.54020,209.78865 C 194.54020,208.79747 194.80692,208.01173 195.34036,207.43144 C 195.87739,206.84755 196.60006,206.55561 197.50834,206.55559 C 198.32290,206.55561 198.96625,206.81871 199.43843,207.34494 C 199.91418,207.86757 200.15207,208.57942 200.15207,209.48048 M 199.15729,209.18852 C 199.15008,208.64429 198.99689,208.20998 198.69774,207.88559 C 198.40219,207.56120 198.00932,207.39901 197.51914,207.39900 C 196.96408,207.39901 196.51896,207.55579 196.18376,207.86936 C 195.85217,208.18294 195.66114,208.62446 195.61069,209.19395 L 199.15729,209.18852 M 204.73132,206.70158 L 205.72609,206.70158 L 206.96958,211.42679 L 208.20764,206.70158 L 209.38084,206.70158 L 210.62432,211.42679 L 211.86238,206.70158 L 212.85716,206.70158 L 211.27309,212.75677 L 210.09990,212.75677 L 208.79695,207.79368 L 207.48859,212.75677 L 206.31540,212.75677 L 204.73132,206.70158 M 217.12284,209.71296 C 216.31909,209.71296 215.76223,209.80487 215.45226,209.98869 C 215.14228,210.17251 214.98730,210.48608 214.98730,210.92940 C 214.98730,211.28261 215.10263,211.56376 215.33332,211.77279 C 215.56759,211.97825 215.88477,212.08097 216.28484,212.08097 C 216.83629,212.08097 217.27782,211.88634 217.60942,211.49708 C 217.94461,211.10422 218.11221,210.58339 218.11221,209.93462 L 218.11221,209.71296 L 217.12284,209.71296 M 219.10699,209.30207 L 219.10699,212.75677 L 218.11221,212.75677 L 218.11221,211.83767 C 217.88514,212.20531 217.60221,212.47744 217.26340,212.65405 C 216.92460,212.82706 216.51011,212.91355 216.01993,212.91355 C 215.39999,212.91355 214.90620,212.74055 214.53857,212.39454 C 214.17454,212.04493 213.99252,211.57817 213.99252,210.99427 C 213.99252,210.31307 214.21959,209.79946 214.67373,209.45345 C 215.13147,209.10743 215.81269,208.93443 216.71736,208.93442 L 218.11221,208.93442 L 218.11221,208.83711 C 218.11221,208.37937 217.96083,208.02615 217.65808,207.77746 C 217.35892,207.52517 216.93720,207.39901 216.39297,207.39900 C 216.04696,207.39901 215.70996,207.44045 215.38196,207.52335 C 215.05398,207.60626 214.73860,207.73061 214.43584,207.89639 L 214.43584,206.97730 C 214.79988,206.83675 215.15309,206.73221 215.49551,206.66372 C 215.83792,206.59164 216.17131,206.55561 216.49569,206.55559 C 217.37154,206.55561 218.02571,206.78268 218.45821,207.23681 C 218.89072,207.69096 219.10699,208.37937 219.10699,209.30207 M 221.16144,206.70158 L 222.15622,206.70158 L 222.15622,212.75677 L 221.16144,212.75677 L 221.16144,206.70158 M 221.16144,204.34437 L 222.15622,204.34437 L 222.15622,205.60408 L 221.16144,205.60408 L 221.16144,204.34437 M 225.21627,204.98234 L 225.21627,206.70158 L 227.26529,206.70158 L 227.26529,207.47469 L 225.21627,207.47469 L 225.21627,210.76180 C 225.21627,211.25559 225.28294,211.57277 225.41629,211.71333 C 225.55326,211.85389 225.82898,211.92418 226.24347,211.92418 L 227.26529,211.92418 L 227.26529,212.75677 L 226.24347,212.75677 C 225.47576,212.75677 224.94593,212.61439 224.65399,212.32967 C 224.36203,212.04132 224.21607,211.51870 224.21607,210.76180 L 224.21607,207.47469 L 223.48621,207.47469 L 223.48621,206.70158 L 224.21607,206.70158 L 224.21607,204.98234 L 225.21627,204.98234 M 228.71961,211.38354 L 229.86038,211.38354 L 229.86038,212.75677 L 228.71961,212.75677 L 228.71961,211.38354"
     id="text3642" />
</svg>
